<?xml version="1.0" encoding="UTF-8" ?>
<svg version="1.1" width="16" height="16" xmlns="http://www.w3.org/2000/svg" shape-rendering="crispEdges">
    <g fill="currentColor">
        <rect x="4" y="1" width="7" height="1" />
        <rect x="2" y="2" width="2" height="1" />
        <rect x="11" y="2" width="2" height="1" />
        <rect x="1" y="3" width="1" height="10" />
        <rect x="13" y="3" width="1" height="10" />
        <rect x="2" y="4" width="2" height="1" />
        <rect x="11" y="4" width="2" height="1" />
        <rect x="4" y="5" width="7" height="1" />
        <rect x="2" y="7" width="2" height="1" />
        <rect x="11" y="7" width="2" height="1" />
        <rect x="4" y="8" width="7" height="1" />
        <rect x="2" y="10" width="2" height="1" />
        <rect x="11" y="10" width="2" height="1" />
        <rect x="4" y="11" width="7" height="1" />
        <rect x="2" y="13" width="2" height="1" />
        <rect x="11" y="13" width="2" height="1" />
        <rect x="4" y="14" width="7" height="1" />
    </g>
</svg>