<?xml version="1.0" encoding="UTF-8" ?>
<svg version="1.1" xmlns="http://www.w3.org/2000/svg" shape-rendering="crispEdges">
    <g fill="currentColor">
        <rect x="3" y="0" width="2" height="9" />
        <rect x="12" y="0" width="2" height="9" />
        <rect x="5" y="1" width="1" height="9" />
        <rect x="7" y="1" width="3" height="15" />
        <rect x="11" y="1" width="1" height="9" />
        <rect x="6" y="2" width="1" height="14" />
        <rect x="10" y="2" width="1" height="9" />
        <rect x="2" y="3" width="1" height="5" />
        <rect x="14" y="3" width="1" height="5" />
        <rect x="4" y="9" width="1" height="1" />
        <rect x="12" y="9" width="1" height="1" />
        <rect x="1" y="10" width="2" height="1" />
        <rect x="2" y="11" width="2" height="2" />
        <rect x="4" y="12" width="2" height="2" />
        <rect x="10" y="12" width="1" height="4" />
        <rect x="3" y="13" width="1" height="1" />
    </g>
</svg>