<?xml version="1.0" encoding="UTF-8" ?>
<svg version="1.1" width="16" height="16" xmlns="http://www.w3.org/2000/svg" shape-rendering="crispEdges">
    <g fill="currentColor">
        <rect x="1" y="0" width="14" height="4" />
        <rect x="0" y="1" width="1" height="14" />
        <rect x="15" y="1" width="1" height="14" />
        <rect x="1" y="4" width="2" height="12" />
        <rect x="5" y="4" width="10" height="2" />
        <rect x="3" y="5" width="2" height="1" />
        <rect x="5" y="6" width="1" height="10" />
        <rect x="8" y="6" width="1" height="1" />
        <rect x="12" y="6" width="3" height="1" />
        <rect x="13" y="7" width="2" height="9" />
        <rect x="9" y="8" width="2" height="8" />
        <rect x="8" y="9" width="1" height="7" />
        <rect x="3" y="13" width="2" height="3" />
        <rect x="6" y="13" width="2" height="3" />
        <rect x="11" y="13" width="2" height="3" />
    </g>
</svg>